<svg width="32" height="32" viewBox="0 0 32 32" fill="none" xmlns="http://www.w3.org/2000/svg">
<path d="M32 16C32 24.8366 24.8366 32 16 32C7.16344 32 0 24.8366 0 16C0 7.16344 7.16344 0 16 0C24.8366 0 32 7.16344 32 16Z" fill="#466ECA"/>
<path d="M22.2483 23.0649C21.7173 23.4133 21.0204 23.6954 20.1576 23.9111C19.2948 24.1434 18.3822 24.2761 17.4198 24.3093C15.9763 24.3591 14.6654 24.1517 13.4874 23.6871C12.3259 23.2225 11.3386 22.5671 10.5256 21.7209C9.71255 20.8747 9.08203 19.8791 8.63403 18.7342C8.20262 17.5727 7.98692 16.3283 7.98692 15.0009C7.98692 13.6901 8.17773 12.4954 8.55936 11.4169C8.95758 10.3384 9.52173 9.40918 10.2518 8.62933C10.9819 7.86607 11.8613 7.27704 12.89 6.86222C13.9354 6.43081 15.1051 6.21511 16.3994 6.21511C17.312 6.21511 18.1416 6.34785 18.8883 6.61333C19.6515 6.86222 20.3069 7.18578 20.8545 7.584C21.3854 7.99881 21.8003 8.46341 22.0989 8.97778C22.3976 9.47556 22.5469 9.97333 22.5469 10.4711H19.6847C19.6847 10.2056 19.61 9.93185 19.4607 9.64978C19.3114 9.35111 19.0957 9.08563 18.8136 8.85333C18.5315 8.60444 18.1748 8.40533 17.7434 8.256C17.312 8.09007 16.8225 8.00711 16.2749 8.00711C15.7937 8.00711 15.2379 8.10667 14.6074 8.30578C13.9768 8.4883 13.3795 8.82015 12.8154 9.30133C12.2512 9.79911 11.77 10.4794 11.3718 11.3422C10.9902 12.1884 10.7994 13.2836 10.7994 14.6276C10.7994 15.6895 10.9404 16.7016 11.2225 17.664C11.5045 18.6098 11.9277 19.4394 12.4918 20.1529C13.0394 20.883 13.7197 21.4554 14.5327 21.8702C15.3623 22.285 16.3081 22.4924 17.37 22.4924C18.0835 22.4924 18.8302 22.4178 19.61 22.2684C20.3899 22.1191 21.1117 21.8702 21.7754 21.5218C21.9745 21.4222 22.1487 21.4222 22.298 21.5218C22.464 21.6047 22.5801 21.7375 22.6465 21.92C22.7128 22.1025 22.7128 22.3016 22.6465 22.5173C22.5967 22.733 22.464 22.9156 22.2483 23.0649Z" fill="white"/>
</svg>
